<?xml version="1.0" encoding="utf-8"?>
<!-- Generator: Adobe Illustrator 26.5.0, SVG Export Plug-In . SVG Version: 6.00 Build 0)  -->
<svg version="1.1" id="Layer_1" xmlns="http://www.w3.org/2000/svg" xmlns:xlink="http://www.w3.org/1999/xlink" x="0px" y="0px"
	 width="5163.1px" height="2392.4px" viewBox="0 0 5163.1 2392.4" style="enable-background:new 0 0 5163.1 2392.4;"
	 xml:space="preserve">
<style type="text/css">
	.st0{fill:#FFFFFF;stroke:#FFFFFF;stroke-width:120;stroke-linecap:round;stroke-linejoin:round;stroke-miterlimit:10;}
	.st1{fill:#4D2557;}
	.st2{fill:#D886AF;}
	.st3{fill:#79DAE8;}
	.st4{fill:#37153F;}
	.st5{fill:#E7EEF9;}
</style>
<g>
	<g>
		<g>
			<path class="st0" d="M279.9,971c75.2,267.6,126.1,542.1,151.9,818.9c257.2,60.2,519,155.9,729.4,320.8
				c-0.1-256.7,0-861.5,0-861.5s-142.5-118.5-331.7-185.6C653.4,1001,466.8,965.5,279.9,971L279.9,971z"/>
			<path class="st0" d="M1161.2,1222.9c0,0-258.3-265.6-802.7-286.8l-21.1-89.4C337.4,846.7,972.9,884.6,1161.2,1222.9z"/>
			<path class="st0" d="M1161.2,1175.7c0,0-209.7-311.7-748.7-366l-17.2-85.8C395.3,723.9,910,772.5,1161.2,1175.7z"/>
		</g>
		<g>
			<path class="st0" d="M2042.5,971c-75.2,267.6-126.1,542.1-151.9,818.9c-257.2,60.2-519,155.9-729.4,320.8
				c0.1-256.7,0-861.6,0-861.6s142.5-118.5,331.7-185.6C1669.1,1001.1,1855.6,965.5,2042.5,971L2042.5,971z"/>
			<path class="st0" d="M1161.2,1222.9c0,0,258.3-265.6,802.7-286.8l21.1-89.4C1985,846.7,1349.5,884.6,1161.2,1222.9L1161.2,1222.9
				z"/>
			<path class="st0" d="M1161.2,1175.7c0,0,209.7-311.7,748.7-366l17.2-85.8C1927.1,723.9,1412.4,772.5,1161.2,1175.7L1161.2,1175.7
				z"/>
		</g>
	</g>
	<path class="st0" d="M967.8,733.7c-39.8,0-72.2-32.4-72.2-72.2c0-39.8,32.4-72.2,72.2-72.2c39.8,0,72.2,32.4,72.2,72.2
		C1040,701.4,1007.6,733.7,967.8,733.7z M967.8,609.1c-28.9,0-52.4,23.5-52.4,52.4s23.5,52.4,52.4,52.4c28.9,0,52.4-23.5,52.4-52.4
		C1020.3,632.6,996.8,609.1,967.8,609.1z"/>
	<path class="st0" d="M1566.5,671.4c-51.8,0-93.9-42.1-93.9-93.9s42.1-93.9,93.9-93.9s93.9,42.1,93.9,93.9
		S1618.3,671.4,1566.5,671.4L1566.5,671.4z M1566.5,503.4c-40.9,0-74.1,33.3-74.1,74.1c0,40.9,33.3,74.1,74.1,74.1
		s74.1-33.3,74.1-74.1S1607.4,503.4,1566.5,503.4L1566.5,503.4z"/>
	<path class="st0" d="M642.8,653.2c-20.5,0-37.1-16.7-37.1-37.1c0-20.5,16.7-37.1,37.1-37.1c20.5,0,37.1,16.7,37.1,37.1
		S663.3,653.2,642.8,653.2z M642.8,598.7c-9.6,0-17.4,7.8-17.4,17.4s7.8,17.4,17.4,17.4c9.6,0,17.4-7.8,17.4-17.4
		S652.4,598.7,642.8,598.7z"/>
	<path class="st0" d="M1328.7,378.8l-37.6-16.1c-5.4-2.3-9.3-7.1-10.4-12.8l-8.1-40.1c-2.9-14.4-21-19.2-30.7-8.2l-26.9,30.8
		c-3.8,4.4-9.6,6.6-15.4,5.9l-40.7-4.7c-14.6-1.7-24.8,14.1-17.3,26.7l21,35.2c3,5,3.3,11.2,0.9,16.5l-17.1,37.2
		c-6.1,13.4,5.7,27.9,20,24.7l39.9-9.1c5.7-1.3,11.6,0.3,15.9,4.2l30.1,27.7c10.8,9.9,28.3,3.2,29.7-11.4l3.7-40.8
		c0.5-5.8,3.9-11,9-13.9l35.7-20.1C1343.2,403.3,1342.2,384.5,1328.7,378.8L1328.7,378.8z"/>
	<path class="st0" d="M865.6,92.5l-58.5,17c-8.3,2.4-17.3,0.6-24-4.9L736,66c-16.9-13.8-42.3-2.3-43,19.6l-1.9,60.9
		c-0.3,8.7-4.8,16.7-12.1,21.3l-51.2,32.9c-18.4,11.8-15.2,39.6,5.3,47l57.3,20.6c8.2,2.9,14.3,9.7,16.6,18.1l15.5,58.9
		c5.5,21.1,32.9,26.7,46.3,9.5l37.3-48.1c5.3-6.9,13.7-10.7,22.3-10.2l60.8,3.5c21.8,1.3,35.6-23,23.3-41.1l-34.2-50.4
		c-4.9-7.2-5.9-16.3-2.8-24.4l22.1-56.7C905.5,107,886.6,86.4,865.6,92.5L865.6,92.5z"/>
	<path class="st0" d="M1196.1,854.3l-30.3,5.9c-4.3,0.9-8.8-0.5-11.9-3.5l-22.1-21.6c-7.9-7.7-21.3-3-22.6,7.9l-3.7,30.6
		c-0.5,4.4-3.2,8.2-7.1,10.2l-27.3,14.3c-9.8,5.1-9.5,19.3,0.6,23.9l28,13c4,1.8,6.8,5.5,7.5,9.9l5.2,30.4
		c1.9,10.9,15.4,15,22.9,6.8l21-22.6c3-3.2,7.4-4.8,11.7-4.1l30.5,4.5c11,1.6,19-10,13.6-19.7l-15-26.9c-2.1-3.8-2.2-8.5-0.3-12.4
		l13.7-27.6C1215.6,863.4,1207,852.2,1196.1,854.3L1196.1,854.3z"/>
	<path class="st0" d="M1949.3,364.5L1910,340c-5.6-3.5-9.1-9.5-9.5-16.1l-2.2-46.3c-0.8-16.6-20.3-25.1-33-14.4l-35.5,29.9
		c-5.1,4.3-11.9,5.8-18.2,4l-44.7-12.3c-16-4.4-30.2,11.5-23.9,26.9l17.5,43c2.5,6.1,1.8,13.1-1.8,18.6l-25.5,38.7
		c-9.1,13.9,1.6,32.2,18.2,31.1l46.3-3.3c6.6-0.5,13,2.3,17.1,7.5l29,36.2c10.4,13,31.2,8.4,35.2-7.7l11.1-45
		c1.6-6.4,6.2-11.6,12.4-14l43.4-16.4C1961.4,394.4,1963.5,373.3,1949.3,364.5L1949.3,364.5z"/>
	<path class="st0" d="M1339.4,634.1c0,10-8.1,18-18,18s-18-8.1-18-18c0-9.9,8.1-18,18-18S1339.4,624.2,1339.4,634.1z"/>
	<path class="st0" d="M517.5,346.9c0,10-8.1,18-18,18s-18-8.1-18-18s8.1-18,18-18C509.4,328.9,517.5,337,517.5,346.9z"/>
	<circle class="st0" cx="1585.6" cy="258.4" r="37.1"/>
	<circle class="st0" cx="897.2" cy="421.2" r="28.7"/>
</g>
<path class="st0" d="M2165,1537.2c6.1-9.4,18.6-12.2,28-6.1c9.4,6.1,12.2,18.6,6.1,28c-0.6,1-96,154.2-315.9,300.6
	c72.5-21,147.7-45.6,225.9-74.2c10.5-3.9,22.2,1.5,26.1,12.1c3.9,10.5-1.5,22.2-12.1,26.1c-130.5,47.8-253.1,84.6-368.1,112
	c-121.9,63.9-271.2,120.5-451.1,154c505.4,26.8,906.2-79,908.2-79.5c10.8-2.8,21.9,3.8,24.6,14.6c2.8,10.8-3.8,21.9-14.6,24.6
	c-1.2,0.3-135.5,35.8-346.9,60.8c1,1.8,1.7,3.9,2.1,6.1c1.9,11.1-5.5,21.6-16.5,23.5c-201.7,35.9-477.7,71.6-746.3,72.6
	c-198.3,0.8-392.6-17.3-550.1-68.2c-10.7-3.4-16.5-14.8-13.1-25.5c3.4-10.7,14.8-16.5,25.5-13.1c153.2,49.5,343.1,67.1,537.5,66.3
	c193.4-0.8,391.2-19.8,561.9-43.9c-164.7,10-355.8,9.8-557.2-13.5c-213.8,18.3-463.3,4.7-752.4-59.9c-10.9-2.4-17.8-13.2-15.4-24.1
	c2.4-10.9,13.2-17.8,24.1-15.4c194.7,43.5,370.9,63.5,530,66.1c-274.8-54.5-558-157.9-812.1-340.9c-9.1-6.5-11.1-19.2-4.6-28.3
	c6.5-9.1,19.2-11.1,28.3-4.6C429.9,1932.5,788.2,2035.1,1119,2074c177.1-15.4,328.6-53.2,456.9-101.9
	c-187.5,31.3-352.4,36.7-496.4,24.9c-420.8-34.6-664.5-215.8-775.7-325.7c-8-7.9-8.1-20.7-0.2-28.7c7.9-8,20.7-8.1,28.7-0.2
	c107.1,105.9,342.3,280.6,750.4,314.1c183.6,15.1,402.2,1.6,659.5-59.5C2039.1,1739.5,2164.3,1538.3,2165,1537.2L2165,1537.2
	L2165,1537.2z"/>
<path class="st0" d="M217.4,1735.8c-24.8-8.8-47.4-23.4-65.9-42.6c-17.8-18.5-31.7-41.3-39.9-67.4c-8.2-26-9.7-52.6-5.7-78
	c4.2-26.3,14.5-51.2,29.8-72.6l8.9-12.5l14.4,5.1c24.8,8.8,47.4,23.4,65.9,42.6c17.8,18.5,31.7,41.3,39.9,67.4
	c8.2,26,9.7,52.6,5.7,78c-4.2,26.3-14.5,51.2-29.8,72.6l-9,12.5L217.4,1735.8L217.4,1735.8z M180.7,1665.1
	c10.3,10.7,22.4,19.5,35.6,26.1c7.1-13,11.9-27.1,14.2-41.7c3.1-19.3,1.8-39.6-4.4-59.6c-6.3-19.9-16.8-37.3-30.4-51.3
	c-10.3-10.7-22.4-19.5-35.6-26.1c-7,13-11.9,27.1-14.2,41.7c-3.1,19.2-1.8,39.6,4.4,59.6C156.6,1633.7,167.2,1651,180.7,1665.1
	L180.7,1665.1z"/>
<path class="st0" d="M268.7,1911.1c-2.6,21.5-10.3,42.3-22.4,60.6c-11.6,17.6-27.4,32.8-46.9,44.1h-0.1
	c-19.5,11.3-40.6,17.3-61.6,18.6c-21.8,1.3-43.5-2.5-63.5-10.9l-14.2-6l1.9-15.1c2.6-21.5,10.3-42.3,22.4-60.6
	c11.6-17.6,27.4-32.8,46.9-44.1c19.5-11.3,40.6-17.3,61.7-18.6c21.8-1.3,43.5,2.5,63.5,10.9l14.2,6L268.7,1911.1L268.7,1911.1
	L268.7,1911.1z M212.5,1949.3c5.5-8.4,9.8-17.5,12.6-27.1c-9.7-2.3-19.7-3.2-29.8-2.6c-14.9,0.9-29.9,5.2-43.7,13.2
	c-13.9,8-25.1,18.8-33.4,31.3c-5.5,8.4-9.8,17.5-12.6,27.1c9.7,2.3,19.7,3.2,29.8,2.6c15-0.9,29.9-5.2,43.8-13.2
	C193,1972.6,204.2,1961.8,212.5,1949.3L212.5,1949.3L212.5,1949.3z"/>
<path class="st0" d="M1715.8,2220c2.8,9.6,7,18.8,12.6,27.1c8.3,12.5,19.5,23.4,33.3,31.3c13.9,8,28.9,12.3,43.8,13.2
	c10.1,0.6,20.1-0.3,29.8-2.6c-2.8-9.6-7-18.8-12.6-27.1c-8.3-12.5-19.5-23.4-33.3-31.3c-13.8-8-28.9-12.3-43.8-13.2
	C1735.5,2216.7,1725.4,2217.7,1715.8,2220L1715.8,2220L1715.8,2220z M1694.5,2269.5c-12.1-18.3-19.7-39.1-22.4-60.6l-1.9-15.1
	l14.2-6c20-8.5,41.8-12.3,63.5-10.9c21,1.3,42.1,7.4,61.6,18.6c19.6,11.3,35.4,26.5,47,44c12.1,18.3,19.7,39.1,22.4,60.6l1.9,15.1
	l-14.2,6c-20,8.5-41.8,12.3-63.5,10.9c-21-1.3-42.1-7.4-61.6-18.6C1721.9,2302.3,1706.1,2287.1,1694.5,2269.5L1694.5,2269.5z"/>
<g>
	<path class="st0" d="M2457.6,1242.4c12.6,16.2,19,37.2,19,62.8c0,44.9-12.8,76.2-38.5,93.9c-25.7,17.7-56.2,26.6-91.7,26.6h-140.9
		c-9.8,0-18-3.3-24.6-9.9c-6.6-6.6-9.9-14.8-9.9-24.6v-327.1c0-9.8,3.3-18,9.9-24.6s14.8-9.9,24.6-9.9h142.6
		c71.7,0,107.5,33.6,107.5,100.7c0,17-4.1,32-12.2,45c-8.1,13-19.7,23.3-34.8,30.8C2428.7,1214.1,2445,1226.2,2457.6,1242.4
		L2457.6,1242.4z M2370.5,1108c-7.7-7.7-18.6-11.6-32.5-11.6h-93.4v88.3h95.1c11.3,0,21.2-3.8,29.7-11.3
		c8.5-7.5,12.7-17.7,12.7-30.6C2382.1,1127.4,2378.2,1115.7,2370.5,1108L2370.5,1108z M2388,1346.6c10-9.4,15-23.2,15-41.3
		c0-22.3-5.9-36.8-17.5-43.6c-11.7-6.8-26-10.2-43-10.2h-97.9v109.2h101.9C2364.2,1360.7,2378,1356,2388,1346.6L2388,1346.6z"/>
	<path class="st0" d="M2881.2,1330.4c-16.6,31.1-39.5,55.7-68.8,73.9c-29.2,18.1-62.2,27.2-98.8,27.2c-36.6,0-69.5-9.1-98.8-27.2
		c-29.2-18.1-52.1-42.7-68.5-73.9c-16.4-31.1-24.6-65.4-24.6-102.7s8.2-71.6,24.6-102.7c16.4-31.1,39.2-55.7,68.5-73.9
		c29.2-18.1,62.2-27.2,98.8-27.2s69.5,9.1,98.8,27.2c29.2,18.1,52.2,42.7,68.8,73.9c16.6,31.1,24.9,65.4,24.9,102.7
		S2897.8,1299.3,2881.2,1330.4z M2817.3,1158.9c-10.2-20.6-24.3-36.9-42.4-49c-18.1-12.1-38.5-18.1-61.1-18.1
		c-22.6,0-43.5,5.9-61.4,17.8c-17.9,11.9-31.9,28.2-41.9,49c-10,20.8-15,43.8-15,69s5,48.3,15,69c10,20.8,24,37.1,41.9,49
		c17.9,11.9,38.4,17.8,61.4,17.8c23,0,43-6,61.1-18.1c18.1-12.1,32.3-28.4,42.4-49c10.2-20.6,15.3-43.5,15.3-68.8
		C2832.6,1202.4,2827.5,1179.5,2817.3,1158.9z"/>
	<path class="st0" d="M3310.8,1330.4c-16.6,31.1-39.5,55.7-68.8,73.9c-29.2,18.1-62.2,27.2-98.8,27.2c-36.6,0-69.5-9.1-98.8-27.2
		c-29.2-18.1-52.1-42.7-68.5-73.9c-16.4-31.1-24.6-65.4-24.6-102.7s8.2-71.6,24.6-102.7c16.4-31.1,39.2-55.7,68.5-73.9
		c29.2-18.1,62.2-27.2,98.8-27.2s69.5,9.1,98.8,27.2c29.2,18.1,52.2,42.7,68.8,73.9c16.6,31.1,24.9,65.4,24.9,102.7
		S3327.4,1299.3,3310.8,1330.4z M3246.8,1158.9c-10.2-20.6-24.3-36.9-42.4-49c-18.1-12.1-38.5-18.1-61.1-18.1
		c-22.6,0-43.5,5.9-61.4,17.8c-17.9,11.9-31.9,28.2-41.9,49c-10,20.8-15,43.8-15,69s5,48.3,15,69c10,20.8,24,37.1,41.9,49
		c17.9,11.9,38.4,17.8,61.4,17.8c23,0,43-6,61.1-18.1c18.1-12.1,32.3-28.4,42.4-49c10.2-20.6,15.3-43.5,15.3-68.8
		C3262.1,1202.4,3257,1179.5,3246.8,1158.9z"/>
	<path class="st0" d="M3709.8,1378c1.5,4.3,2.3,8.4,2.3,12.2c0,10.2-3.9,18.7-11.6,25.5c-7.7,6.8-16.7,10.2-26.9,10.2
		c-4.9,0-9.6-1.1-14.1-3.4c-4.5-2.3-8.3-5.5-11.3-9.6l-122.8-161.9l-53.8,51.5v88.9c0,10.2-3.3,18.5-9.9,24.9
		c-6.6,6.4-15.2,9.6-25.7,9.6s-18.6-3.3-25.2-9.9c-6.6-6.6-9.9-14.8-9.9-24.6v-327.1c0-9.8,3.4-18,10.2-24.6
		c6.8-6.6,15.5-9.9,26-9.9s18.5,3.2,24.9,9.6c6.4,6.4,9.6,14.7,9.6,24.9v153.9l181.1-178.3c8.7-8.7,17.9-13,27.7-13
		c8.7,0,16,3.6,22.1,10.7c6,7.2,9.1,14.7,9.1,22.6c0,7.9-3.4,15.3-10.2,22.1L3577.9,1200l126.2,167
		C3706.4,1369.9,3708.2,1373.6,3709.8,1378L3709.8,1378z"/>
	<path class="st0" d="M4083.6,1034.2c2.8,3,4.2,6.8,4.2,11.3v362.2c0,5.7-1.7,10.1-5.1,13.3c-3.4,3.2-7.5,4.8-12.4,4.8
		c-2.6,0-5.2-0.6-7.6-1.7c-2.5-1.1-4.4-2.4-5.9-4L3813.9,1093v317.5c0,4.2-1.6,7.7-4.8,10.7c-3.2,3-6.9,4.5-11,4.5
		c-4.5,0-8.3-1.5-11.3-4.5c-3-3-4.5-6.6-4.5-10.7v-363.9c0-5.3,1.6-9.4,4.8-12.4c3.2-3,7.1-4.5,11.6-4.5c6,0,10.6,2.1,13.6,6.2
		l243.9,328.8v-319.2c0-4.5,1.5-8.3,4.5-11.3c3-3,6.8-4.5,11.3-4.5C4076.9,1029.6,4080.7,1031.2,4083.6,1034.2L4083.6,1034.2z"/>
	<path class="st0" d="M4431.1,1397.5c3.2,3.4,4.8,7.4,4.8,11.9c0,4.9-1.6,8.9-4.8,11.9c-3.2,3-7.3,4.5-12.2,4.5h-207.7
		c-4.9,0-9-1.6-12.2-4.8c-3.2-3.2-4.8-7.3-4.8-12.2v-362.2c0-4.9,1.6-9,4.8-12.2c3.2-3.2,7.3-4.8,12.2-4.8h207.7
		c4.9,0,9,1.6,12.2,4.8c3.2,3.2,4.8,7.3,4.8,12.2s-1.6,8.9-4.8,11.9c-3.2,3-7.3,4.5-12.2,4.5h-189v142.1h163.6c4.9,0,9,1.6,12.2,4.8
		c3.2,3.2,4.8,7.3,4.8,12.2s-1.6,8.9-4.8,11.9c-3.2,3-7.3,4.5-12.2,4.5h-163.6v153.9h189C4423.8,1392.4,4427.8,1394.1,4431.1,1397.5
		z"/>
	<path class="st0" d="M4550.5,1417.9c-20.9-9.1-41.2-23.2-60.8-42.4c-4.5-3.8-6.8-8.3-6.8-13.6c0-4.5,1.8-8.7,5.4-12.4
		c3.6-3.8,7.6-5.7,12.2-5.7s8.7,1.9,12.4,5.7c29.4,32.5,66.2,48.7,110.4,48.7c27.2,0,49.7-6.4,67.6-19.2
		c17.9-12.8,26.9-29.6,26.9-50.4c0-16.2-4.4-29.7-13.3-40.5c-8.9-10.7-20.5-19.5-34.8-26.3c-14.3-6.8-32.6-13.8-54.9-20.9
		c-24.1-7.2-44.4-15.1-60.8-23.8c-16.4-8.7-29.7-20.3-39.9-34.8c-10.2-14.5-15.3-32.9-15.3-55.2c0-20,5.4-37.7,16.1-53.2
		c10.7-15.5,25.8-27.6,45.3-36.5c19.4-8.9,41.8-13.3,67.1-13.3c23,0,44.6,3.9,64.8,11.6c20.2,7.7,36.3,18.8,48.4,33.1
		c5.7,6.4,8.5,11.9,8.5,16.4c0,4.2-1.9,8-5.7,11.6c-3.8,3.6-7.9,5.4-12.4,5.4c-3.8,0-7-1.3-9.6-4c-10.2-12.1-23.8-21.9-40.7-29.4
		c-17-7.5-34.7-11.3-53.2-11.3c-27.5,0-50,6.1-67.3,18.4c-17.4,12.3-26,29-26,50.1c0,21.1,8.3,38.7,24.9,50.4
		c16.6,11.7,40.4,22.4,71.3,32.3c26.8,7.9,48.7,16,65.7,24.3c17,8.3,30.8,20.1,41.6,35.4c10.7,15.3,16.1,35.4,16.1,60.3
		c0,19.2-5.6,36.7-16.7,52.3c-11.1,15.7-26.6,28-46.4,37.1c-19.8,9.1-42.4,13.6-67.6,13.6
		C4595.5,1431.5,4571.4,1426.9,4550.5,1417.9L4550.5,1417.9z"/>
	<path class="st0" d="M5098.3,1034.2c3.2,3,4.8,7,4.8,11.9s-1.6,8.8-4.8,11.6c-3.2,2.8-7.3,4.2-12.2,4.2H4969v346.9
		c0,4.9-1.7,9-5.1,12.2c-3.4,3.2-7.5,4.8-12.4,4.8c-5.3,0-9.5-1.6-12.7-4.8c-3.2-3.2-4.8-7.3-4.8-12.2v-346.9h-117.1
		c-4.9,0-9-1.5-12.2-4.5c-3.2-3-4.8-7-4.8-11.9c0-4.5,1.6-8.3,4.8-11.3c3.2-3,7.3-4.5,12.2-4.5h269.4
		C5091,1029.6,5095.1,1031.1,5098.3,1034.2L5098.3,1034.2z"/>
</g>
<g>
	<g>
		<g>
			<g>
				<path class="st1" d="M279.9,971c75.2,267.6,126.1,542.1,151.9,818.9c257.2,60.2,519,155.9,729.4,320.8
					c-0.1-256.7,0-861.5,0-861.5s-142.5-118.5-331.7-185.6C653.4,1001,466.8,965.5,279.9,971L279.9,971z"/>
				<path class="st2" d="M1161.2,1222.9c0,0-258.3-265.6-802.7-286.8l-21.1-89.4C337.4,846.7,972.9,884.6,1161.2,1222.9z"/>
				<path class="st3" d="M1161.2,1175.7c0,0-209.7-311.7-748.7-366l-17.2-85.8C395.3,723.9,910,772.5,1161.2,1175.7z"/>
			</g>
			<g>
				<path class="st4" d="M2042.5,971c-75.2,267.6-126.1,542.1-151.9,818.9c-257.2,60.2-519,155.9-729.4,320.8
					c0.1-256.7,0-861.6,0-861.6s142.5-118.5,331.7-185.6C1669.1,1001.1,1855.6,965.5,2042.5,971L2042.5,971z"/>
				<path class="st2" d="M1161.2,1222.9c0,0,258.3-265.6,802.7-286.8l21.1-89.4C1985,846.7,1349.5,884.6,1161.2,1222.9
					L1161.2,1222.9z"/>
				<path class="st3" d="M1161.2,1175.7c0,0,209.7-311.7,748.7-366l17.2-85.8C1927.1,723.9,1412.4,772.5,1161.2,1175.7
					L1161.2,1175.7z"/>
			</g>
		</g>
		<path class="st3" d="M967.8,733.7c-39.8,0-72.2-32.4-72.2-72.2c0-39.8,32.4-72.2,72.2-72.2c39.8,0,72.2,32.4,72.2,72.2
			C1040,701.4,1007.6,733.7,967.8,733.7z M967.8,609.1c-28.9,0-52.4,23.5-52.4,52.4s23.5,52.4,52.4,52.4c28.9,0,52.4-23.5,52.4-52.4
			C1020.3,632.6,996.8,609.1,967.8,609.1z"/>
		<path class="st1" d="M1566.5,671.4c-51.8,0-93.9-42.1-93.9-93.9s42.1-93.9,93.9-93.9s93.9,42.1,93.9,93.9
			S1618.3,671.4,1566.5,671.4L1566.5,671.4z M1566.5,503.4c-40.9,0-74.1,33.3-74.1,74.1c0,40.9,33.3,74.1,74.1,74.1
			s74.1-33.3,74.1-74.1S1607.4,503.4,1566.5,503.4L1566.5,503.4z"/>
		<path class="st1" d="M642.8,653.2c-20.5,0-37.1-16.7-37.1-37.1c0-20.5,16.7-37.1,37.1-37.1c20.5,0,37.1,16.7,37.1,37.1
			S663.3,653.2,642.8,653.2z M642.8,598.7c-9.6,0-17.4,7.8-17.4,17.4s7.8,17.4,17.4,17.4c9.6,0,17.4-7.8,17.4-17.4
			S652.4,598.7,642.8,598.7z"/>
		<path class="st2" d="M1328.7,378.8l-37.6-16.1c-5.4-2.3-9.3-7.1-10.4-12.8l-8.1-40.1c-2.9-14.4-21-19.2-30.7-8.2l-26.9,30.8
			c-3.8,4.4-9.6,6.6-15.4,5.9l-40.7-4.7c-14.6-1.7-24.8,14.1-17.3,26.7l21,35.2c3,5,3.3,11.2,0.9,16.5l-17.1,37.2
			c-6.1,13.4,5.7,27.9,20,24.7l39.9-9.1c5.7-1.3,11.6,0.3,15.9,4.2l30.1,27.7c10.8,9.9,28.3,3.2,29.7-11.4l3.7-40.8
			c0.5-5.8,3.9-11,9-13.9l35.7-20.1C1343.2,403.3,1342.2,384.5,1328.7,378.8L1328.7,378.8z"/>
		<path class="st3" d="M865.6,92.5l-58.5,17c-8.3,2.4-17.3,0.6-24-4.9L736,66c-16.9-13.8-42.3-2.3-43,19.6l-1.9,60.9
			c-0.3,8.7-4.8,16.7-12.1,21.3l-51.2,32.9c-18.4,11.8-15.2,39.6,5.3,47l57.3,20.6c8.2,2.9,14.3,9.7,16.6,18.1l15.5,58.9
			c5.5,21.1,32.9,26.7,46.3,9.5l37.3-48.1c5.3-6.9,13.7-10.7,22.3-10.2l60.8,3.5c21.8,1.3,35.6-23,23.3-41.1l-34.2-50.4
			c-4.9-7.2-5.9-16.3-2.8-24.4l22.1-56.7C905.5,107,886.6,86.4,865.6,92.5L865.6,92.5z"/>
		<path class="st4" d="M1196.1,854.3l-30.3,5.9c-4.3,0.9-8.8-0.5-11.9-3.5l-22.1-21.6c-7.9-7.7-21.3-3-22.6,7.9l-3.7,30.6
			c-0.5,4.4-3.2,8.2-7.1,10.2l-27.3,14.3c-9.8,5.1-9.5,19.3,0.6,23.9l28,13c4,1.8,6.8,5.5,7.5,9.9l5.2,30.4
			c1.9,10.9,15.4,15,22.9,6.8l21-22.6c3-3.2,7.4-4.8,11.7-4.1l30.5,4.5c11,1.6,19-10,13.6-19.7l-15-26.9c-2.1-3.8-2.2-8.5-0.3-12.4
			l13.7-27.6C1215.6,863.4,1207,852.2,1196.1,854.3L1196.1,854.3z"/>
		<path class="st3" d="M1949.3,364.5L1910,340c-5.6-3.5-9.1-9.5-9.5-16.1l-2.2-46.3c-0.8-16.6-20.3-25.1-33-14.4l-35.5,29.9
			c-5.1,4.3-11.9,5.8-18.2,4l-44.7-12.3c-16-4.4-30.2,11.5-23.9,26.9l17.5,43c2.5,6.1,1.8,13.1-1.8,18.6l-25.5,38.7
			c-9.1,13.9,1.6,32.2,18.2,31.1l46.3-3.3c6.6-0.5,13,2.3,17.1,7.5l29,36.2c10.4,13,31.2,8.4,35.2-7.7l11.1-45
			c1.6-6.4,6.2-11.6,12.4-14l43.4-16.4C1961.4,394.4,1963.5,373.3,1949.3,364.5L1949.3,364.5z"/>
		<path class="st2" d="M1339.4,634.1c0,10-8.1,18-18,18s-18-8.1-18-18c0-9.9,8.1-18,18-18S1339.4,624.2,1339.4,634.1z"/>
		<path class="st5" d="M517.5,346.9c0,10-8.1,18-18,18s-18-8.1-18-18s8.1-18,18-18C509.4,328.9,517.5,337,517.5,346.9z"/>
		<circle class="st1" cx="1585.6" cy="258.4" r="37.1"/>
		<circle class="st2" cx="897.2" cy="421.2" r="28.7"/>
	</g>
	<path class="st2" d="M2165,1537.2c6.1-9.4,18.6-12.2,28-6.1c9.4,6.1,12.2,18.6,6.1,28c-0.6,1-96,154.2-315.9,300.6
		c72.5-21,147.7-45.6,225.9-74.2c10.5-3.9,22.2,1.5,26.1,12.1c3.9,10.5-1.5,22.2-12.1,26.1c-130.5,47.8-253.1,84.6-368.1,112
		c-121.9,63.9-271.2,120.5-451.1,154c505.4,26.8,906.2-79,908.2-79.5c10.8-2.8,21.9,3.8,24.6,14.6c2.8,10.8-3.8,21.9-14.6,24.6
		c-1.2,0.3-135.5,35.8-346.9,60.8c1,1.8,1.7,3.9,2.1,6.1c1.9,11.1-5.5,21.6-16.5,23.5c-201.7,35.9-477.7,71.6-746.3,72.6
		c-198.3,0.8-392.6-17.3-550.1-68.2c-10.7-3.4-16.5-14.8-13.1-25.5c3.4-10.7,14.8-16.5,25.5-13.1c153.2,49.5,343.1,67.1,537.5,66.3
		c193.4-0.8,391.2-19.8,561.9-43.9c-164.7,10-355.8,9.8-557.2-13.5c-213.8,18.3-463.3,4.7-752.4-59.9c-10.9-2.4-17.8-13.2-15.4-24.1
		c2.4-10.9,13.2-17.8,24.1-15.4c194.7,43.5,370.9,63.5,530,66.1c-274.8-54.5-558-157.9-812.1-340.9c-9.1-6.5-11.1-19.2-4.6-28.3
		c6.5-9.1,19.2-11.1,28.3-4.6C429.9,1932.5,788.2,2035.1,1119,2074c177.1-15.4,328.6-53.2,456.9-101.9
		c-187.5,31.3-352.4,36.7-496.4,24.9c-420.8-34.6-664.5-215.8-775.7-325.7c-8-7.9-8.1-20.7-0.2-28.7c7.9-8,20.7-8.1,28.7-0.2
		c107.1,105.9,342.3,280.6,750.4,314.1c183.6,15.1,402.2,1.6,659.5-59.5C2039.1,1739.5,2164.3,1538.3,2165,1537.2L2165,1537.2
		L2165,1537.2z"/>
	<path class="st3" d="M217.4,1735.8c-24.8-8.8-47.4-23.4-65.9-42.6c-17.8-18.5-31.7-41.3-39.9-67.4c-8.2-26-9.7-52.6-5.7-78
		c4.2-26.3,14.5-51.2,29.8-72.6l8.9-12.5l14.4,5.1c24.8,8.8,47.4,23.4,65.9,42.6c17.8,18.5,31.7,41.3,39.9,67.4
		c8.2,26,9.7,52.6,5.7,78c-4.2,26.3-14.5,51.2-29.8,72.6l-9,12.5L217.4,1735.8L217.4,1735.8z M180.7,1665.1
		c10.3,10.7,22.4,19.5,35.6,26.1c7.1-13,11.9-27.1,14.2-41.7c3.1-19.3,1.8-39.6-4.4-59.6c-6.3-19.9-16.8-37.3-30.4-51.3
		c-10.3-10.7-22.4-19.5-35.6-26.1c-7,13-11.9,27.1-14.2,41.7c-3.1,19.2-1.8,39.6,4.4,59.6C156.6,1633.7,167.2,1651,180.7,1665.1
		L180.7,1665.1z"/>
	<path class="st3" d="M268.7,1911.1c-2.6,21.5-10.3,42.3-22.4,60.6c-11.6,17.6-27.4,32.8-46.9,44.1h-0.1
		c-19.5,11.3-40.6,17.3-61.6,18.6c-21.8,1.3-43.5-2.5-63.5-10.9l-14.2-6l1.9-15.1c2.6-21.5,10.3-42.3,22.4-60.6
		c11.6-17.6,27.4-32.8,46.9-44.1c19.5-11.3,40.6-17.3,61.7-18.6c21.8-1.3,43.5,2.5,63.5,10.9l14.2,6L268.7,1911.1L268.7,1911.1
		L268.7,1911.1z M212.5,1949.3c5.5-8.4,9.8-17.5,12.6-27.1c-9.7-2.3-19.7-3.2-29.8-2.6c-14.9,0.9-29.9,5.2-43.7,13.2
		c-13.9,8-25.1,18.8-33.4,31.3c-5.5,8.4-9.8,17.5-12.6,27.1c9.7,2.3,19.7,3.2,29.8,2.6c15-0.9,29.9-5.2,43.8-13.2
		C193,1972.6,204.2,1961.8,212.5,1949.3L212.5,1949.3L212.5,1949.3z"/>
	<path class="st3" d="M1715.8,2220c2.8,9.6,7,18.8,12.6,27.1c8.3,12.5,19.5,23.4,33.3,31.3c13.9,8,28.9,12.3,43.8,13.2
		c10.1,0.6,20.1-0.3,29.8-2.6c-2.8-9.6-7-18.8-12.6-27.1c-8.3-12.5-19.5-23.4-33.3-31.3c-13.8-8-28.9-12.3-43.8-13.2
		C1735.5,2216.7,1725.4,2217.7,1715.8,2220L1715.8,2220L1715.8,2220z M1694.5,2269.5c-12.1-18.3-19.7-39.1-22.4-60.6l-1.9-15.1
		l14.2-6c20-8.5,41.8-12.3,63.5-10.9c21,1.3,42.1,7.4,61.6,18.6c19.6,11.3,35.4,26.5,47,44c12.1,18.3,19.7,39.1,22.4,60.6l1.9,15.1
		l-14.2,6c-20,8.5-41.8,12.3-63.5,10.9c-21-1.3-42.1-7.4-61.6-18.6C1721.9,2302.3,1706.1,2287.1,1694.5,2269.5L1694.5,2269.5z"/>
	<g>
		<g>
			<g>
				<path class="st1" d="M279.9,971c75.2,267.6,126.1,542.1,151.9,818.9c257.2,60.2,519,155.9,729.4,320.8
					c-0.1-256.7,0-861.5,0-861.5s-142.5-118.5-331.7-185.6C653.4,1001,466.8,965.5,279.9,971L279.9,971z"/>
				<path class="st2" d="M1161.2,1222.9c0,0-258.3-265.6-802.7-286.8l-21.1-89.4C337.4,846.7,972.9,884.6,1161.2,1222.9z"/>
				<path class="st3" d="M1161.2,1175.7c0,0-209.7-311.7-748.7-366l-17.2-85.8C395.3,723.9,910,772.5,1161.2,1175.7z"/>
			</g>
			<g>
				<path class="st4" d="M2042.5,971c-75.2,267.6-126.1,542.1-151.9,818.9c-257.2,60.2-519,155.9-729.4,320.8
					c0.1-256.7,0-861.6,0-861.6s142.5-118.5,331.7-185.6C1669.1,1001.1,1855.6,965.5,2042.5,971L2042.5,971z"/>
				<path class="st2" d="M1161.2,1222.9c0,0,258.3-265.6,802.7-286.8l21.1-89.4C1985,846.7,1349.5,884.6,1161.2,1222.9
					L1161.2,1222.9z"/>
				<path class="st3" d="M1161.2,1175.7c0,0,209.7-311.7,748.7-366l17.2-85.8C1927.1,723.9,1412.4,772.5,1161.2,1175.7
					L1161.2,1175.7z"/>
			</g>
		</g>
		<path class="st3" d="M967.8,733.7c-39.8,0-72.2-32.4-72.2-72.2c0-39.8,32.4-72.2,72.2-72.2c39.8,0,72.2,32.4,72.2,72.2
			C1040,701.4,1007.6,733.7,967.8,733.7z M967.8,609.1c-28.9,0-52.4,23.5-52.4,52.4s23.5,52.4,52.4,52.4c28.9,0,52.4-23.5,52.4-52.4
			C1020.3,632.6,996.8,609.1,967.8,609.1z"/>
		<path class="st1" d="M1566.5,671.4c-51.8,0-93.9-42.1-93.9-93.9s42.1-93.9,93.9-93.9s93.9,42.1,93.9,93.9
			S1618.3,671.4,1566.5,671.4L1566.5,671.4z M1566.5,503.4c-40.9,0-74.1,33.3-74.1,74.1c0,40.9,33.3,74.1,74.1,74.1
			s74.1-33.3,74.1-74.1S1607.4,503.4,1566.5,503.4L1566.5,503.4z"/>
		<path class="st1" d="M642.8,653.2c-20.5,0-37.1-16.7-37.1-37.1c0-20.5,16.7-37.1,37.1-37.1c20.5,0,37.1,16.7,37.1,37.1
			S663.3,653.2,642.8,653.2z M642.8,598.7c-9.6,0-17.4,7.8-17.4,17.4s7.8,17.4,17.4,17.4c9.6,0,17.4-7.8,17.4-17.4
			S652.4,598.7,642.8,598.7z"/>
		<path class="st2" d="M1328.7,378.8l-37.6-16.1c-5.4-2.3-9.3-7.1-10.4-12.8l-8.1-40.1c-2.9-14.4-21-19.2-30.7-8.2l-26.9,30.8
			c-3.8,4.4-9.6,6.6-15.4,5.9l-40.7-4.7c-14.6-1.7-24.8,14.1-17.3,26.7l21,35.2c3,5,3.3,11.2,0.9,16.5l-17.1,37.2
			c-6.1,13.4,5.7,27.9,20,24.7l39.9-9.1c5.7-1.3,11.6,0.3,15.9,4.2l30.1,27.7c10.8,9.9,28.3,3.2,29.7-11.4l3.7-40.8
			c0.5-5.8,3.9-11,9-13.9l35.7-20.1C1343.2,403.3,1342.2,384.5,1328.7,378.8L1328.7,378.8z"/>
		<path class="st3" d="M865.6,92.5l-58.5,17c-8.3,2.4-17.3,0.6-24-4.9L736,66c-16.9-13.8-42.3-2.3-43,19.6l-1.9,60.9
			c-0.3,8.7-4.8,16.7-12.1,21.3l-51.2,32.9c-18.4,11.8-15.2,39.6,5.3,47l57.3,20.6c8.2,2.9,14.3,9.7,16.6,18.1l15.5,58.9
			c5.5,21.1,32.9,26.7,46.3,9.5l37.3-48.1c5.3-6.9,13.7-10.7,22.3-10.2l60.8,3.5c21.8,1.3,35.6-23,23.3-41.1l-34.2-50.4
			c-4.9-7.2-5.9-16.3-2.8-24.4l22.1-56.7C905.5,107,886.6,86.4,865.6,92.5L865.6,92.5z"/>
		<path class="st4" d="M1196.1,854.3l-30.3,5.9c-4.3,0.9-8.8-0.5-11.9-3.5l-22.1-21.6c-7.9-7.7-21.3-3-22.6,7.9l-3.7,30.6
			c-0.5,4.4-3.2,8.2-7.1,10.2l-27.3,14.3c-9.8,5.1-9.5,19.3,0.6,23.9l28,13c4,1.8,6.8,5.5,7.5,9.9l5.2,30.4
			c1.9,10.9,15.4,15,22.9,6.8l21-22.6c3-3.2,7.4-4.8,11.7-4.1l30.5,4.5c11,1.6,19-10,13.6-19.7l-15-26.9c-2.1-3.8-2.2-8.5-0.3-12.4
			l13.7-27.6C1215.6,863.4,1207,852.2,1196.1,854.3L1196.1,854.3z"/>
		<path class="st3" d="M1949.3,364.5L1910,340c-5.6-3.5-9.1-9.5-9.5-16.1l-2.2-46.3c-0.8-16.6-20.3-25.1-33-14.4l-35.5,29.9
			c-5.1,4.3-11.9,5.8-18.2,4l-44.7-12.3c-16-4.4-30.2,11.5-23.9,26.9l17.5,43c2.5,6.1,1.8,13.1-1.8,18.6l-25.5,38.7
			c-9.1,13.9,1.6,32.2,18.2,31.1l46.3-3.3c6.6-0.5,13,2.3,17.1,7.5l29,36.2c10.4,13,31.2,8.4,35.2-7.7l11.1-45
			c1.6-6.4,6.2-11.6,12.4-14l43.4-16.4C1961.4,394.4,1963.5,373.3,1949.3,364.5L1949.3,364.5z"/>
		<path class="st2" d="M1339.4,634.1c0,10-8.1,18-18,18s-18-8.1-18-18c0-9.9,8.1-18,18-18S1339.4,624.2,1339.4,634.1z"/>
		<path class="st5" d="M517.5,346.9c0,10-8.1,18-18,18s-18-8.1-18-18s8.1-18,18-18C509.4,328.9,517.5,337,517.5,346.9z"/>
		<circle class="st1" cx="1585.6" cy="258.4" r="37.1"/>
		<circle class="st2" cx="897.2" cy="421.2" r="28.7"/>
	</g>
	<path class="st2" d="M2165,1537.2c6.1-9.4,18.6-12.2,28-6.1c9.4,6.1,12.2,18.6,6.1,28c-0.6,1-96,154.2-315.9,300.6
		c72.5-21,147.7-45.6,225.9-74.2c10.5-3.9,22.2,1.5,26.1,12.1c3.9,10.5-1.5,22.2-12.1,26.1c-130.5,47.8-253.1,84.6-368.1,112
		c-121.9,63.9-271.2,120.5-451.1,154c505.4,26.8,906.2-79,908.2-79.5c10.8-2.8,21.9,3.8,24.6,14.6c2.8,10.8-3.8,21.9-14.6,24.6
		c-1.2,0.3-135.5,35.8-346.9,60.8c1,1.8,1.7,3.9,2.1,6.1c1.9,11.1-5.5,21.6-16.5,23.5c-201.7,35.9-477.7,71.6-746.3,72.6
		c-198.3,0.8-392.6-17.3-550.1-68.2c-10.7-3.4-16.5-14.8-13.1-25.5c3.4-10.7,14.8-16.5,25.5-13.1c153.2,49.5,343.1,67.1,537.5,66.3
		c193.4-0.8,391.2-19.8,561.9-43.9c-164.7,10-355.8,9.8-557.2-13.5c-213.8,18.3-463.3,4.7-752.4-59.9c-10.9-2.4-17.8-13.2-15.4-24.1
		c2.4-10.9,13.2-17.8,24.1-15.4c194.7,43.5,370.9,63.5,530,66.1c-274.8-54.5-558-157.9-812.1-340.9c-9.1-6.5-11.1-19.2-4.6-28.3
		c6.5-9.1,19.2-11.1,28.3-4.6C429.9,1932.5,788.2,2035.1,1119,2074c177.1-15.4,328.6-53.2,456.9-101.9
		c-187.5,31.3-352.4,36.7-496.4,24.9c-420.8-34.6-664.5-215.8-775.7-325.7c-8-7.9-8.1-20.7-0.2-28.7c7.9-8,20.7-8.1,28.7-0.2
		c107.1,105.9,342.3,280.6,750.4,314.1c183.6,15.1,402.2,1.6,659.5-59.5C2039.1,1739.5,2164.3,1538.3,2165,1537.2L2165,1537.2
		L2165,1537.2z"/>
	<path class="st3" d="M217.4,1735.8c-24.8-8.8-47.4-23.4-65.9-42.6c-17.8-18.5-31.7-41.3-39.9-67.4c-8.2-26-9.7-52.6-5.7-78
		c4.2-26.3,14.5-51.2,29.8-72.6l8.9-12.5l14.4,5.1c24.8,8.8,47.4,23.4,65.9,42.6c17.8,18.5,31.7,41.3,39.9,67.4
		c8.2,26,9.7,52.6,5.7,78c-4.2,26.3-14.5,51.2-29.8,72.6l-9,12.5L217.4,1735.8L217.4,1735.8z M180.7,1665.1
		c10.3,10.7,22.4,19.5,35.6,26.1c7.1-13,11.9-27.1,14.2-41.7c3.1-19.3,1.8-39.6-4.4-59.6c-6.3-19.9-16.8-37.3-30.4-51.3
		c-10.3-10.7-22.4-19.5-35.6-26.1c-7,13-11.9,27.1-14.2,41.7c-3.1,19.2-1.8,39.6,4.4,59.6C156.6,1633.7,167.2,1651,180.7,1665.1
		L180.7,1665.1z"/>
	<path class="st3" d="M268.7,1911.1c-2.6,21.5-10.3,42.3-22.4,60.6c-11.6,17.6-27.4,32.8-46.9,44.1h-0.1
		c-19.5,11.3-40.6,17.3-61.6,18.6c-21.8,1.3-43.5-2.5-63.5-10.9l-14.2-6l1.9-15.1c2.6-21.5,10.3-42.3,22.4-60.6
		c11.6-17.6,27.4-32.8,46.9-44.1c19.5-11.3,40.6-17.3,61.7-18.6c21.8-1.3,43.5,2.5,63.5,10.9l14.2,6L268.7,1911.1L268.7,1911.1
		L268.7,1911.1z M212.5,1949.3c5.5-8.4,9.8-17.5,12.6-27.1c-9.7-2.3-19.7-3.2-29.8-2.6c-14.9,0.9-29.9,5.2-43.7,13.2
		c-13.9,8-25.1,18.8-33.4,31.3c-5.5,8.4-9.8,17.5-12.6,27.1c9.7,2.3,19.7,3.2,29.8,2.6c15-0.9,29.9-5.2,43.8-13.2
		C193,1972.6,204.2,1961.8,212.5,1949.3L212.5,1949.3L212.5,1949.3z"/>
	<path class="st3" d="M1715.8,2220c2.8,9.6,7,18.8,12.6,27.1c8.3,12.5,19.5,23.4,33.3,31.3c13.9,8,28.9,12.3,43.8,13.2
		c10.1,0.6,20.1-0.3,29.8-2.6c-2.8-9.6-7-18.8-12.6-27.1c-8.3-12.5-19.5-23.4-33.3-31.3c-13.8-8-28.9-12.3-43.8-13.2
		C1735.5,2216.7,1725.4,2217.7,1715.8,2220L1715.8,2220L1715.8,2220z M1694.5,2269.5c-12.1-18.3-19.7-39.1-22.4-60.6l-1.9-15.1
		l14.2-6c20-8.5,41.8-12.3,63.5-10.9c21,1.3,42.1,7.4,61.6,18.6c19.6,11.3,35.4,26.5,47,44c12.1,18.3,19.7,39.1,22.4,60.6l1.9,15.1
		l-14.2,6c-20,8.5-41.8,12.3-63.5,10.9c-21-1.3-42.1-7.4-61.6-18.6C1721.9,2302.3,1706.1,2287.1,1694.5,2269.5L1694.5,2269.5z"/>
	<g>
		<path class="st1" d="M2457.6,1242.4c12.6,16.2,19,37.2,19,62.8c0,44.9-12.8,76.2-38.5,93.9c-25.7,17.7-56.2,26.6-91.7,26.6h-140.9
			c-9.8,0-18-3.3-24.6-9.9c-6.6-6.6-9.9-14.8-9.9-24.6v-327.1c0-9.8,3.3-18,9.9-24.6s14.8-9.9,24.6-9.9h142.6
			c71.7,0,107.5,33.6,107.5,100.7c0,17-4.1,32-12.2,45c-8.1,13-19.7,23.3-34.8,30.8C2428.7,1214.1,2445,1226.2,2457.6,1242.4
			L2457.6,1242.4z M2370.5,1108c-7.7-7.7-18.6-11.6-32.5-11.6h-93.4v88.3h95.1c11.3,0,21.2-3.8,29.7-11.3
			c8.5-7.5,12.7-17.7,12.7-30.6C2382.1,1127.4,2378.2,1115.7,2370.5,1108L2370.5,1108z M2388,1346.6c10-9.4,15-23.2,15-41.3
			c0-22.3-5.9-36.8-17.5-43.6c-11.7-6.8-26-10.2-43-10.2h-97.9v109.2h101.9C2364.2,1360.7,2378,1356,2388,1346.6L2388,1346.6z"/>
		<path class="st1" d="M2881.2,1330.4c-16.6,31.1-39.5,55.7-68.8,73.9c-29.2,18.1-62.2,27.2-98.8,27.2c-36.6,0-69.5-9.1-98.8-27.2
			c-29.2-18.1-52.1-42.7-68.5-73.9c-16.4-31.1-24.6-65.4-24.6-102.7s8.2-71.6,24.6-102.7c16.4-31.1,39.2-55.7,68.5-73.9
			c29.2-18.1,62.2-27.2,98.8-27.2s69.5,9.1,98.8,27.2c29.2,18.1,52.2,42.7,68.8,73.9c16.6,31.1,24.9,65.4,24.9,102.7
			S2897.8,1299.3,2881.2,1330.4z M2817.3,1158.9c-10.2-20.6-24.3-36.9-42.4-49c-18.1-12.1-38.5-18.1-61.1-18.1
			c-22.6,0-43.5,5.9-61.4,17.8c-17.9,11.9-31.9,28.2-41.9,49c-10,20.8-15,43.8-15,69s5,48.3,15,69c10,20.8,24,37.1,41.9,49
			c17.9,11.9,38.4,17.8,61.4,17.8c23,0,43-6,61.1-18.1c18.1-12.1,32.3-28.4,42.4-49c10.2-20.6,15.3-43.5,15.3-68.8
			C2832.6,1202.4,2827.5,1179.5,2817.3,1158.9z"/>
		<path class="st1" d="M3310.8,1330.4c-16.6,31.1-39.5,55.7-68.8,73.9c-29.2,18.1-62.2,27.2-98.8,27.2c-36.6,0-69.5-9.1-98.8-27.2
			c-29.2-18.1-52.1-42.7-68.5-73.9c-16.4-31.1-24.6-65.4-24.6-102.7s8.2-71.6,24.6-102.7c16.4-31.1,39.2-55.7,68.5-73.9
			c29.2-18.1,62.2-27.2,98.8-27.2s69.5,9.1,98.8,27.2c29.2,18.1,52.2,42.7,68.8,73.9c16.6,31.1,24.9,65.4,24.9,102.7
			S3327.4,1299.3,3310.8,1330.4z M3246.8,1158.9c-10.2-20.6-24.3-36.9-42.4-49c-18.1-12.1-38.5-18.1-61.1-18.1
			c-22.6,0-43.5,5.9-61.4,17.8c-17.9,11.9-31.9,28.2-41.9,49c-10,20.8-15,43.8-15,69s5,48.3,15,69c10,20.8,24,37.1,41.9,49
			c17.9,11.9,38.4,17.8,61.4,17.8c23,0,43-6,61.1-18.1c18.1-12.1,32.3-28.4,42.4-49c10.2-20.6,15.3-43.5,15.3-68.8
			C3262.1,1202.4,3257,1179.5,3246.8,1158.9z"/>
		<path class="st1" d="M3709.8,1378c1.5,4.3,2.3,8.4,2.3,12.2c0,10.2-3.9,18.7-11.6,25.5c-7.7,6.8-16.7,10.2-26.9,10.2
			c-4.9,0-9.6-1.1-14.1-3.4c-4.5-2.3-8.3-5.5-11.3-9.6l-122.8-161.9l-53.8,51.5v88.9c0,10.2-3.3,18.5-9.9,24.9
			c-6.6,6.4-15.2,9.6-25.7,9.6s-18.6-3.3-25.2-9.9c-6.6-6.6-9.9-14.8-9.9-24.6v-327.1c0-9.8,3.4-18,10.2-24.6
			c6.8-6.6,15.5-9.9,26-9.9s18.5,3.2,24.9,9.6c6.4,6.4,9.6,14.7,9.6,24.9v153.9l181.1-178.3c8.7-8.7,17.9-13,27.7-13
			c8.7,0,16,3.6,22.1,10.7c6,7.2,9.1,14.7,9.1,22.6c0,7.9-3.4,15.3-10.2,22.1L3577.9,1200l126.2,167
			C3706.4,1369.9,3708.2,1373.6,3709.8,1378L3709.8,1378z"/>
		<path class="st2" d="M4083.6,1034.2c2.8,3,4.2,6.8,4.2,11.3v362.2c0,5.7-1.7,10.1-5.1,13.3c-3.4,3.2-7.5,4.8-12.4,4.8
			c-2.6,0-5.2-0.6-7.6-1.7c-2.5-1.1-4.4-2.4-5.9-4L3813.9,1093v317.5c0,4.2-1.6,7.7-4.8,10.7c-3.2,3-6.9,4.5-11,4.5
			c-4.5,0-8.3-1.5-11.3-4.5c-3-3-4.5-6.6-4.5-10.7v-363.9c0-5.3,1.6-9.4,4.8-12.4c3.2-3,7.1-4.5,11.6-4.5c6,0,10.6,2.1,13.6,6.2
			l243.9,328.8v-319.2c0-4.5,1.5-8.3,4.5-11.3c3-3,6.8-4.5,11.3-4.5C4076.9,1029.6,4080.7,1031.2,4083.6,1034.2L4083.6,1034.2z"/>
		<path class="st2" d="M4431.1,1397.5c3.2,3.4,4.8,7.4,4.8,11.9c0,4.9-1.6,8.9-4.8,11.9c-3.2,3-7.3,4.5-12.2,4.5h-207.7
			c-4.9,0-9-1.6-12.2-4.8c-3.2-3.2-4.8-7.3-4.8-12.2v-362.2c0-4.9,1.6-9,4.8-12.2c3.2-3.2,7.3-4.8,12.2-4.8h207.7
			c4.9,0,9,1.6,12.2,4.8c3.2,3.2,4.8,7.3,4.8,12.2s-1.6,8.9-4.8,11.9c-3.2,3-7.3,4.5-12.2,4.5h-189v142.1h163.6
			c4.9,0,9,1.6,12.2,4.8c3.2,3.2,4.8,7.3,4.8,12.2s-1.6,8.9-4.8,11.9c-3.2,3-7.3,4.5-12.2,4.5h-163.6v153.9h189
			C4423.8,1392.4,4427.8,1394.1,4431.1,1397.5z"/>
		<path class="st2" d="M4550.5,1417.9c-20.9-9.1-41.2-23.2-60.8-42.4c-4.5-3.8-6.8-8.3-6.8-13.6c0-4.5,1.8-8.7,5.4-12.4
			c3.6-3.8,7.6-5.7,12.2-5.7s8.7,1.9,12.4,5.7c29.4,32.5,66.2,48.7,110.4,48.7c27.2,0,49.7-6.4,67.6-19.2
			c17.9-12.8,26.9-29.6,26.9-50.4c0-16.2-4.4-29.7-13.3-40.5c-8.9-10.7-20.5-19.5-34.8-26.3c-14.3-6.8-32.6-13.8-54.9-20.9
			c-24.1-7.2-44.4-15.1-60.8-23.8c-16.4-8.7-29.7-20.3-39.9-34.8c-10.2-14.5-15.3-32.9-15.3-55.2c0-20,5.4-37.7,16.1-53.2
			c10.7-15.5,25.8-27.6,45.3-36.5c19.4-8.9,41.8-13.3,67.1-13.3c23,0,44.6,3.9,64.8,11.6c20.2,7.7,36.3,18.8,48.4,33.1
			c5.7,6.4,8.5,11.9,8.5,16.4c0,4.2-1.9,8-5.7,11.6c-3.8,3.6-7.9,5.4-12.4,5.4c-3.8,0-7-1.3-9.6-4c-10.2-12.1-23.8-21.9-40.7-29.4
			c-17-7.5-34.7-11.3-53.2-11.3c-27.5,0-50,6.1-67.3,18.4c-17.4,12.3-26,29-26,50.1c0,21.1,8.3,38.7,24.9,50.4
			c16.6,11.7,40.4,22.4,71.3,32.3c26.8,7.9,48.7,16,65.7,24.3c17,8.3,30.8,20.1,41.6,35.4c10.7,15.3,16.1,35.4,16.1,60.3
			c0,19.2-5.6,36.7-16.7,52.3c-11.1,15.7-26.6,28-46.4,37.1c-19.8,9.1-42.4,13.6-67.6,13.6
			C4595.5,1431.5,4571.4,1426.9,4550.5,1417.9L4550.5,1417.9z"/>
		<path class="st2" d="M5098.3,1034.2c3.2,3,4.8,7,4.8,11.9s-1.6,8.8-4.8,11.6c-3.2,2.8-7.3,4.2-12.2,4.2H4969v346.9
			c0,4.9-1.7,9-5.1,12.2c-3.4,3.2-7.5,4.8-12.4,4.8c-5.3,0-9.5-1.6-12.7-4.8c-3.2-3.2-4.8-7.3-4.8-12.2v-346.9h-117.1
			c-4.9,0-9-1.5-12.2-4.5c-3.2-3-4.8-7-4.8-11.9c0-4.5,1.6-8.3,4.8-11.3c3.2-3,7.3-4.5,12.2-4.5h269.4
			C5091,1029.6,5095.1,1031.1,5098.3,1034.2L5098.3,1034.2z"/>
	</g>
	<g>
		<path class="st1" d="M2457.6,1242.4c12.6,16.2,19,37.2,19,62.8c0,44.9-12.8,76.2-38.5,93.9c-25.7,17.7-56.2,26.6-91.7,26.6h-140.9
			c-9.8,0-18-3.3-24.6-9.9c-6.6-6.6-9.9-14.8-9.9-24.6v-327.1c0-9.8,3.3-18,9.9-24.6s14.8-9.9,24.6-9.9h142.6
			c71.7,0,107.5,33.6,107.5,100.7c0,17-4.1,32-12.2,45c-8.1,13-19.7,23.3-34.8,30.8C2428.7,1214.1,2445,1226.2,2457.6,1242.4
			L2457.6,1242.4z M2370.5,1108c-7.7-7.7-18.6-11.6-32.5-11.6h-93.4v88.3h95.1c11.3,0,21.2-3.8,29.7-11.3
			c8.5-7.5,12.7-17.7,12.7-30.6C2382.1,1127.4,2378.2,1115.7,2370.5,1108L2370.5,1108z M2388,1346.6c10-9.4,15-23.2,15-41.3
			c0-22.3-5.9-36.8-17.5-43.6c-11.7-6.8-26-10.2-43-10.2h-97.9v109.2h101.9C2364.2,1360.7,2378,1356,2388,1346.6L2388,1346.6z"/>
		<path class="st1" d="M2881.2,1330.4c-16.6,31.1-39.5,55.7-68.8,73.9c-29.2,18.1-62.2,27.2-98.8,27.2c-36.6,0-69.5-9.1-98.8-27.2
			c-29.2-18.1-52.1-42.7-68.5-73.9c-16.4-31.1-24.6-65.4-24.6-102.7s8.2-71.6,24.6-102.7c16.4-31.1,39.2-55.7,68.5-73.9
			c29.2-18.1,62.2-27.2,98.8-27.2s69.5,9.1,98.8,27.2c29.2,18.1,52.2,42.7,68.8,73.9c16.6,31.1,24.9,65.4,24.9,102.7
			S2897.8,1299.3,2881.2,1330.4z M2817.3,1158.9c-10.2-20.6-24.3-36.9-42.4-49c-18.1-12.1-38.5-18.1-61.1-18.1
			c-22.6,0-43.5,5.9-61.4,17.8c-17.9,11.9-31.9,28.2-41.9,49c-10,20.8-15,43.8-15,69s5,48.3,15,69c10,20.8,24,37.1,41.9,49
			c17.9,11.9,38.4,17.8,61.4,17.8c23,0,43-6,61.1-18.1c18.1-12.1,32.3-28.4,42.4-49c10.2-20.6,15.3-43.5,15.3-68.8
			C2832.6,1202.4,2827.5,1179.5,2817.3,1158.9z"/>
		<path class="st1" d="M3310.8,1330.4c-16.6,31.1-39.5,55.7-68.8,73.9c-29.2,18.1-62.2,27.2-98.8,27.2c-36.6,0-69.5-9.1-98.8-27.2
			c-29.2-18.1-52.1-42.7-68.5-73.9c-16.4-31.1-24.6-65.4-24.6-102.7s8.2-71.6,24.6-102.7c16.4-31.1,39.2-55.7,68.5-73.9
			c29.2-18.1,62.2-27.2,98.8-27.2s69.5,9.1,98.8,27.2c29.2,18.1,52.2,42.7,68.8,73.9c16.6,31.1,24.9,65.4,24.9,102.7
			S3327.4,1299.3,3310.8,1330.4z M3246.8,1158.9c-10.2-20.6-24.3-36.9-42.4-49c-18.1-12.1-38.5-18.1-61.1-18.1
			c-22.6,0-43.5,5.9-61.4,17.8c-17.9,11.9-31.9,28.2-41.9,49c-10,20.8-15,43.8-15,69s5,48.3,15,69c10,20.8,24,37.1,41.9,49
			c17.9,11.9,38.4,17.8,61.4,17.8c23,0,43-6,61.1-18.1c18.1-12.1,32.3-28.4,42.4-49c10.2-20.6,15.3-43.5,15.3-68.8
			C3262.1,1202.4,3257,1179.5,3246.8,1158.9z"/>
		<path class="st1" d="M3709.8,1378c1.5,4.3,2.3,8.4,2.3,12.2c0,10.2-3.9,18.7-11.6,25.5c-7.7,6.8-16.7,10.2-26.9,10.2
			c-4.9,0-9.6-1.1-14.1-3.4c-4.5-2.3-8.3-5.5-11.3-9.6l-122.8-161.9l-53.8,51.5v88.9c0,10.2-3.3,18.5-9.9,24.9
			c-6.6,6.4-15.2,9.6-25.7,9.6s-18.6-3.3-25.2-9.9c-6.6-6.6-9.9-14.8-9.9-24.6v-327.1c0-9.8,3.4-18,10.2-24.6
			c6.8-6.6,15.5-9.9,26-9.9s18.5,3.2,24.9,9.6c6.4,6.4,9.6,14.7,9.6,24.9v153.9l181.1-178.3c8.7-8.7,17.9-13,27.7-13
			c8.7,0,16,3.6,22.1,10.7c6,7.2,9.1,14.7,9.1,22.6c0,7.9-3.4,15.3-10.2,22.1L3577.9,1200l126.2,167
			C3706.4,1369.9,3708.2,1373.6,3709.8,1378L3709.8,1378z"/>
		<path class="st2" d="M4083.6,1034.2c2.8,3,4.2,6.8,4.2,11.3v362.2c0,5.7-1.7,10.1-5.1,13.3c-3.4,3.2-7.5,4.8-12.4,4.8
			c-2.6,0-5.2-0.6-7.6-1.7c-2.5-1.1-4.4-2.4-5.9-4L3813.9,1093v317.5c0,4.2-1.6,7.7-4.8,10.7c-3.2,3-6.9,4.5-11,4.5
			c-4.5,0-8.3-1.5-11.3-4.5c-3-3-4.5-6.6-4.5-10.7v-363.9c0-5.3,1.6-9.4,4.8-12.4c3.2-3,7.1-4.5,11.6-4.5c6,0,10.6,2.1,13.6,6.2
			l243.9,328.8v-319.2c0-4.5,1.5-8.3,4.5-11.3c3-3,6.8-4.5,11.3-4.5C4076.9,1029.6,4080.7,1031.2,4083.6,1034.2L4083.6,1034.2z"/>
		<path class="st2" d="M4431.1,1397.5c3.2,3.4,4.8,7.4,4.8,11.9c0,4.9-1.6,8.9-4.8,11.9c-3.2,3-7.3,4.5-12.2,4.5h-207.7
			c-4.9,0-9-1.6-12.2-4.8c-3.2-3.2-4.8-7.3-4.8-12.2v-362.2c0-4.9,1.6-9,4.8-12.2c3.2-3.2,7.3-4.8,12.2-4.8h207.7
			c4.9,0,9,1.6,12.2,4.8c3.2,3.2,4.8,7.3,4.8,12.2s-1.6,8.9-4.8,11.9c-3.2,3-7.3,4.5-12.2,4.5h-189v142.1h163.6
			c4.9,0,9,1.6,12.2,4.8c3.2,3.2,4.8,7.3,4.8,12.2s-1.6,8.9-4.8,11.9c-3.2,3-7.3,4.5-12.2,4.5h-163.6v153.9h189
			C4423.8,1392.4,4427.8,1394.1,4431.1,1397.5z"/>
		<path class="st2" d="M4550.5,1417.9c-20.9-9.1-41.2-23.2-60.8-42.4c-4.5-3.8-6.8-8.3-6.8-13.6c0-4.5,1.8-8.7,5.4-12.4
			c3.6-3.8,7.6-5.7,12.2-5.7s8.7,1.9,12.4,5.7c29.4,32.5,66.2,48.7,110.4,48.7c27.2,0,49.7-6.4,67.6-19.2
			c17.9-12.8,26.9-29.6,26.9-50.4c0-16.2-4.4-29.7-13.3-40.5c-8.9-10.7-20.5-19.5-34.8-26.3c-14.3-6.8-32.6-13.8-54.9-20.9
			c-24.1-7.2-44.4-15.1-60.8-23.8c-16.4-8.7-29.7-20.3-39.9-34.8c-10.2-14.5-15.3-32.9-15.3-55.2c0-20,5.4-37.7,16.1-53.2
			c10.7-15.5,25.8-27.6,45.3-36.5c19.4-8.9,41.8-13.3,67.1-13.3c23,0,44.6,3.9,64.8,11.6c20.2,7.7,36.3,18.8,48.4,33.1
			c5.7,6.4,8.5,11.9,8.5,16.4c0,4.2-1.9,8-5.7,11.6c-3.8,3.6-7.9,5.4-12.4,5.4c-3.8,0-7-1.3-9.6-4c-10.2-12.1-23.8-21.9-40.7-29.4
			c-17-7.5-34.7-11.3-53.2-11.3c-27.5,0-50,6.1-67.3,18.4c-17.4,12.3-26,29-26,50.1c0,21.1,8.3,38.7,24.9,50.4
			c16.6,11.7,40.4,22.4,71.3,32.3c26.8,7.9,48.7,16,65.7,24.3c17,8.3,30.8,20.1,41.6,35.4c10.7,15.3,16.1,35.4,16.1,60.3
			c0,19.2-5.6,36.7-16.7,52.3c-11.1,15.7-26.6,28-46.4,37.1c-19.8,9.1-42.4,13.6-67.6,13.6
			C4595.5,1431.5,4571.4,1426.9,4550.5,1417.9L4550.5,1417.9z"/>
		<path class="st2" d="M5098.3,1034.2c3.2,3,4.8,7,4.8,11.9s-1.6,8.8-4.8,11.6c-3.2,2.8-7.3,4.2-12.2,4.2H4969v346.9
			c0,4.9-1.7,9-5.1,12.2c-3.4,3.2-7.5,4.8-12.4,4.8c-5.3,0-9.5-1.6-12.7-4.8c-3.2-3.2-4.8-7.3-4.8-12.2v-346.9h-117.1
			c-4.9,0-9-1.5-12.2-4.5c-3.2-3-4.8-7-4.8-11.9c0-4.5,1.6-8.3,4.8-11.3c3.2-3,7.3-4.5,12.2-4.5h269.4
			C5091,1029.6,5095.1,1031.1,5098.3,1034.2L5098.3,1034.2z"/>
	</g>
</g>
</svg>
